<svg width="32" height="32" viewBox="0 0 32 32" fill="none" xmlns="http://www.w3.org/2000/svg"><rect y="0.000244141" width="32" height="32" rx="7.51807" fill="url(#paint0_linear_10408_1309)"/><rect x="5.5" y="13.3784" width="2.00482" height="5.35904" rx="1.00241" fill="url(#paint1_linear_10408_1309)"/><rect x="9.02173" y="11.7976" width="2.62169" height="7.78795" rx="1.31084" fill="url(#paint2_linear_10408_1309)"/><path d="M13.2881 14.1557C13.2881 10.8731 13.2881 9.23184 14.1967 8.44754C14.4469 8.23163 14.7356 8.06495 15.0476 7.95629C16.1812 7.56155 17.6025 8.38219 20.4453 10.0235L23.8046 11.9629C26.6474 13.6042 28.0687 14.4248 28.2937 15.6039C28.3556 15.9285 28.3556 16.2618 28.2937 16.5864C28.0687 17.7654 26.6474 18.5861 23.8046 20.2274L20.4453 22.1668C17.6025 23.8081 16.1812 24.6287 15.0476 24.234C14.7356 24.1253 14.4469 23.9587 14.1967 23.7427C13.2881 22.9584 13.2881 21.3172 13.2881 18.0346L13.2881 14.1557Z" fill="url(#paint3_linear_10408_1309)"/><defs><linearGradient id="paint0_linear_10408_1309" x1="16" y1="0.000244141" x2="16" y2="32.0002" gradientUnits="userSpaceOnUse"><stop stop-color="#4E4E4E"/><stop offset="1" stop-color="#262525"/></linearGradient><linearGradient id="paint1_linear_10408_1309" x1="5.5" y1="16.0387" x2="7.50482" y2="15.7495" gradientUnits="userSpaceOnUse"><stop stop-color="#8148EF"/><stop offset="1" stop-color="#4A2CC4"/></linearGradient><linearGradient id="paint2_linear_10408_1309" x1="9.02173" y1="15.6636" x2="11.6536" y2="15.322" gradientUnits="userSpaceOnUse"><stop stop-color="#4435E1"/><stop offset="1" stop-color="#3E5EFA"/></linearGradient><linearGradient id="paint3_linear_10408_1309" x1="25.4842" y1="15.653" x2="13.4168" y2="12.8771" gradientUnits="userSpaceOnUse"><stop stop-color="#00DDFE"/><stop offset="1" stop-color="#0092FA"/></linearGradient></defs></svg>