<svg width="35" height="35" xmlns="http://www.w3.org/2000/svg"><defs><clipPath id="clip0_42_5495"><rect id="svg_1" x="0.59473" y="0" height="50" width="50"/></clipPath><linearGradient y2="1.11478" x2="-0.06434" y1="0.82894" x1="-0.06434" id="paint0_linear_42_5495"><stop stop-color="#FF6701"/><stop stop-color="#FE9900" offset="1"/></linearGradient><linearGradient y2="1.06447" x2="-1.25382" y1="-0.50765" x1="-1.25382" id="paint1_linear_42_5495"><stop stop-color="#E70300"/><stop stop-color="#FF6701" offset="1"/></linearGradient><linearGradient y2="0.21136" x2="0.14484" y1="0.87858" x1="0.98711" id="paint2_linear_42_5495"><stop stop-color="#E70300"/><stop stop-color="#FF6701" offset="1"/></linearGradient></defs><g><title>Layer 1</title><g id="svg_2" clip-path="url(#clip0_42_5495)"><path id="svg_3" fill="none" d="m-7.40527,2.1562c0,-5.60909 4.54711,-10.1562 10.15627,-10.1562l29.6875,0c5.6092,0 10.1562,4.54711 10.1562,10.1562l0,29.6876c0,5.6092 -4.547,10.1562 -10.1562,10.1562l-29.6875,0c-5.60916,0 -10.15627,-4.547 -10.15627,-10.1562l0,-29.6876z"/><path id="svg_4" fill="url(#paint0_linear_42_5495)" d="m28.8826,22.1931l-14.9157,10.9894c-1.378,1.0152 -3.3118,0.7614 -4.381,-0.5752c-1.1361,-1.4201 -0.8562,-3.5013 0.6148,-4.5707l14.8662,-10.8078l-13.0669,-9.2288l0,14c0,1.6569 -1.3431,3 -3,3c-1.6569,0 -3,-1.3431 -3,-3l0,-13.6824c0.0027,-0.833 0.1733,-1.6574 0.5021,-2.4259c0.3289,-0.7685 0.8094,-1.4661 1.4143,-2.0528c0.6048,-0.5868 1.3221,-1.0511 2.1106,-1.3666c0.7886,-0.3155 1.6331,-0.47584 2.4851,-0.4719c1.3861,-0.01511 2.7396,0.4109 3.8564,1.2137l12.565,8.9808c0.8004,0.5795 1.4498,1.3353 1.8958,2.206c0.4459,0.8707 0.6757,1.8319 0.6707,2.8057c-0.005,0.9738 -0.2445,1.9327 -0.6993,2.799c-0.4547,0.8664 -1.1118,1.6158 -1.9181,2.1875z" clip-rule="evenodd" fill-rule="evenodd"/><path id="svg_5" fill="url(#paint1_linear_42_5495)" d="m12,8.0352c-0.5884,-0.3404 -1.2715,-0.5352 -2,-0.5352c-2.209,0 -4,1.7909 -4,4l0,9.5l6,0l0,-12.9648z"/><path id="svg_6" fill="url(#paint2_linear_42_5495)" d="m12.4365,8.3083l12.6304,8.9205c2.4331,-1.7289 1.9575,-6.3982 -0.3438,-8.0431l-8.3546,-5.9716c-0.1084,-0.078 -0.2191,-0.1526 -0.3319,-0.2234l-3.6001,5.3176z"/></g></g></svg>