<svg width="100px" viewBox="0 0 100 100" height="100px" version="1.1" xmlns="http://www.w3.org/2000/svg" xmlns:xlink="http://www.w3.org/1999/xlink"><g id="svgg"><path id="path0" d="M47.333 2.447 C 44.804 2.654,41.449 3.238,37.838 4.099 C 36.827 4.340,34.775 5.042,32.667 5.869 C 31.213 6.440,27.478 8.258,26.784 8.733 C 26.436 8.972,26.090 9.167,26.015 9.167 C 25.624 9.167,20.550 12.838,19.003 14.240 C 16.084 16.885,12.607 20.793,11.216 22.991 C 10.894 23.500,10.494 24.067,10.329 24.250 C 10.163 24.433,9.804 25.016,9.531 25.545 C 9.258 26.075,8.953 26.606,8.853 26.726 C 8.267 27.432,6.137 32.182,5.232 34.800 C 2.837 41.731,1.961 51.320,3.142 57.667 C 3.321 58.629,3.592 60.129,3.743 61.000 C 3.963 62.269,5.332 66.789,5.990 68.417 C 6.440 69.530,8.141 73.073,8.631 73.917 C 8.951 74.467,9.401 75.254,9.632 75.667 C 9.863 76.079,10.364 76.829,10.747 77.333 C 11.129 77.837,11.486 78.362,11.540 78.500 C 12.001 79.669,18.426 86.557,20.168 87.750 C 20.570 88.025,21.086 88.422,21.315 88.632 C 21.842 89.116,25.549 91.634,25.950 91.780 C 26.115 91.840,26.558 92.098,26.935 92.353 C 27.956 93.045,31.932 94.904,33.876 95.600 C 42.948 98.843,51.123 99.447,60.583 97.570 C 62.142 97.261,63.979 96.823,64.667 96.597 C 67.249 95.747,68.898 95.147,69.810 94.724 C 70.327 94.484,71.275 94.046,71.917 93.749 C 72.558 93.453,73.496 92.965,74.000 92.665 C 74.504 92.365,75.254 91.933,75.667 91.706 C 76.079 91.478,76.792 91.015,77.250 90.676 C 77.708 90.338,78.196 90.018,78.333 89.965 C 80.371 89.185,88.473 81.008,90.417 77.771 C 90.600 77.466,91.045 76.774,91.405 76.233 C 92.525 74.553,93.455 72.785,95.077 69.250 C 98.036 62.806,99.454 52.414,98.443 44.583 C 98.289 43.392,98.119 42.079,98.065 41.667 C 97.643 38.416,95.090 31.158,93.200 27.835 C 92.861 27.238,92.533 26.629,92.473 26.482 C 92.412 26.335,91.999 25.666,91.556 24.996 C 91.113 24.327,90.675 23.660,90.583 23.516 C 88.060 19.536,82.404 13.785,78.333 11.062 C 77.921 10.786,77.246 10.330,76.833 10.050 C 75.738 9.306,72.984 7.716,72.417 7.500 C 72.148 7.398,71.250 6.985,70.422 6.582 C 69.594 6.179,68.467 5.701,67.917 5.520 C 67.367 5.339,66.242 4.954,65.417 4.665 C 60.715 3.018,52.563 2.018,47.333 2.447 M38.562 30.863 C 39.399 31.337,40.683 32.076,41.417 32.504 C 42.150 32.931,43.087 33.468,43.500 33.695 C 43.913 33.923,45.337 34.731,46.667 35.492 C 47.996 36.252,50.658 37.774,52.583 38.875 C 54.508 39.976,56.833 41.307,57.750 41.835 C 58.667 42.362,61.104 43.749,63.167 44.916 C 65.229 46.084,67.254 47.243,67.667 47.492 C 68.079 47.741,69.467 48.533,70.750 49.251 C 73.449 50.762,73.833 51.063,73.833 51.664 C 73.833 52.380,73.934 52.317,60.167 60.158 C 52.879 64.309,46.167 68.140,45.250 68.673 C 36.899 73.527,36.862 73.544,36.241 72.922 L 35.830 72.511 35.873 51.574 L 35.917 30.637 36.310 30.319 C 36.844 29.886,36.837 29.884,38.562 30.863 " stroke="none" fill="#3c8cec" fill-rule="evenodd"></path></g></svg>