<svg height="512px" style="enable-background:new 0 0 512 512;" version="1.1" viewBox="0 0 512 512" width="512px" xml:space="preserve" xmlns="http://www.w3.org/2000/svg" xmlns:xlink="http://www.w3.org/1999/xlink"><g id="_x31_2-vlc_x2C__media_x2C__player"><g><g><g><path d="M478.104,458.638l-59.65-119.619c-2.535-5.058-7.691-8.255-13.326-8.255H106.872 c-5.635,0-10.791,3.197-13.326,8.255L33.887,458.638c-2.325,4.637-2.053,10.141,0.66,14.538 c2.715,4.396,7.516,7.118,12.676,7.118h417.554c5.16,0,9.959-2.694,12.707-7.087 C480.193,468.778,480.404,463.307,478.104,458.638L478.104,458.638z M478.104,458.638" style="fill:#FF9800;"/></g><path d="M375.297,345.718c0,43.659-107.068,44.858-119.297,44.858c-12.23,0-119.302-1.199-119.302-44.858 c0-1.197,0.301-2.691,0.6-3.887l20.579-75.665c14.61,11.369,53.086,19.739,98.124,19.739s83.512-8.37,98.123-19.739 l20.578,75.665C375.002,343.026,375.297,344.521,375.297,345.718L375.297,345.718z M375.297,345.718" style="fill:#FCFCFC;"/><path d="M332.35,186.62c-18.787,5.975-46.227,9.565-76.35,9.565s-57.563-3.591-76.351-9.565l22.964-84.34 c15.506,2.69,34,4.187,53.387,4.187s37.879-1.496,53.387-4.187L332.35,186.62z M332.35,186.62" style="fill:#FCFCFC;"/><path d="M256,106.467c-19.387,0-37.881-1.496-53.387-4.187l10.439-37.982 c5.666-20.03,22.668-32.592,42.947-32.592s37.279,12.562,42.945,32.297l10.441,38.277 C293.879,104.971,275.387,106.467,256,106.467L256,106.467z M256,106.467" style="fill:#FF9800;"/><path d="M354.123,266.166c-14.611,11.369-53.086,19.739-98.123,19.739s-83.513-8.37-98.124-19.739 l21.772-79.546c18.789,5.975,46.228,9.565,76.351,9.565s57.563-3.591,76.35-9.565L354.123,266.166z M354.123,266.166" style="fill:#FF9800;"/></g></g></g><g id="Layer_1"/></svg>