<svg xmlns="http://www.w3.org/2000/svg" viewBox="0 0 37 37"><circle cx="18.5" cy="18.5" r="18.5" fill="#fff"/><circle cx="18.5" cy="15.5" r="1.1"/><circle cx="18.5" cy="22" r="1.1"/><circle cx="18.5" cy="28.5" r="1.1"/><path d="M27 11.2a2.9 2.9 0 0 1-1.7.8l-4.5-3h-.5l-2 .6-1.7-.5h-.8a118.3 118.3 0 0 1-5 3l-.8-.9c-.5-.5-.5-1.3-.5-2v-4l.3-1.4L11 3l1.9.8c.2.3 2 1.5 2.8 2l2-.2H19l1.4.3h.5l3-2 1.8-1 1.5.5.3 1.4v4.6c0 1-.4 1.6-.6 1.8Zm-22.2-5A18.5 18.5 0 0 0 0 18.4a18.5 18.5 0 0 0 13.8 17.8l-3.4-11zm27.4 0-5.7 19.1-3.1 11A18.5 18.5 0 0 0 37 18.5a18.5 18.5 0 0 0-4.9-12.4z"/></svg>