<svg width="16" height="16" viewBox="0 0 16 16" fill="none" xmlns="http://www.w3.org/2000/svg"><rect width="16" height="16" rx="8" fill="#2777F8"/><path d="M4.5874 6.99646C4.60631 6.96494 4.61891 6.92713 4.63152 6.90192C5.17356 5.81784 5.7219 4.74006 6.25764 3.64969C6.38999 3.37867 6.60429 3.25891 6.88792 3.25891H9.39012C9.71786 3.25891 10.0582 3.25261 10.3859 3.25891C10.7326 3.26521 11.0729 3.19589 11.4007 3.08243C11.4259 3.07613 11.4637 3.05722 11.4826 3.06352C11.5646 3.06983 11.6087 3.15807 11.5772 3.24C11.4196 3.56145 11.2557 3.88289 11.0793 4.20433C10.9532 4.43123 10.7515 4.55098 10.4994 4.55098H7.72618C7.42364 4.55098 7.20305 4.68334 7.077 4.96697C6.95094 5.23168 6.81228 5.49009 6.67992 5.75481C6.66101 5.78002 6.65471 5.80523 6.6358 5.83674C6.81858 5.88087 7.00767 5.91238 7.18414 5.94389C7.73249 6.06365 8.29343 6.1834 8.81026 6.4166C9.5792 6.75695 10.2158 7.25487 10.6444 7.97969C10.9091 8.42088 11.0667 8.88098 11.0982 9.3915C11.1927 10.5638 10.7578 11.5219 9.88176 12.2845C9.28296 12.8013 8.58336 13.1038 7.80812 13.2488C7.35432 13.3308 6.89422 13.3559 6.44042 13.3244C5.92359 13.2803 5.42567 13.1479 4.95927 12.9084C4.95296 12.9022 4.94036 12.9022 4.91515 12.8833C5.00969 12.8895 5.07271 12.9022 5.14205 12.9022C5.85426 12.9652 6.54756 12.8833 7.21566 12.6564C7.79551 12.4546 8.32494 12.1584 8.74723 11.6857C9.09388 11.295 9.28927 10.8475 9.35229 10.3306C9.44684 9.61841 9.18212 9.03855 8.72202 8.52173C8.24931 8.00489 7.66315 7.67716 7.00767 7.45655C6.49715 7.28639 5.98662 7.16663 5.45088 7.091C5.17986 7.04688 4.90254 7.02167 4.63152 6.99646C4.61891 7.00906 4.61261 7.00906 4.5874 6.99646Z" fill="white"/></svg>