<svg width="32" height="32" viewBox="0 0 32 32" fill="none" xmlns="http://www.w3.org/2000/svg"><path d="M0 6.5C0 2.91015 2.91015 0 6.5 0H25.5C29.0899 0 32 2.91015 32 6.5V25.5C32 29.0899 29.0899 32 25.5 32H6.5C2.91015 32 0 29.0899 0 25.5V6.5Z" fill="#FFCA28"/><path fill-rule="evenodd" clip-rule="evenodd" d="M7.75 7.875C6.50736 7.875 5.5 8.88236 5.5 10.125V21.875C5.5 23.1176 6.50736 24.125 7.75 24.125H24.25C25.4926 24.125 26.5 23.1176 26.5 21.875V12.025C26.5 10.7726 25.4774 9.7613 24.2251 9.77514L15.3125 9.875L13.1891 8.17631C12.9453 7.98126 12.6424 7.875 12.3302 7.875H7.75ZM16 20.7917C17.933 20.7917 19.5 19.2247 19.5 17.2917C19.5 15.3587 17.933 13.7917 16 13.7917C14.067 13.7917 12.5 15.3587 12.5 17.2917C12.5 19.2247 14.067 20.7917 16 20.7917Z" fill="white"/><path d="M15.5623 15.8389C15.476 15.7814 15.365 15.776 15.2735 15.825C15.1821 15.8739 15.125 15.9692 15.125 16.0729V18.3229C15.125 18.4267 15.1821 18.522 15.2735 18.5709C15.365 18.6199 15.476 18.6145 15.5623 18.557L17.2498 17.432C17.328 17.3798 17.375 17.292 17.375 17.1979C17.375 17.1039 17.328 17.0161 17.2498 16.9639L15.5623 15.8389Z" fill="white"/></svg>