<svg width="277" height="309" viewBox="0 0 277 309" fill="none" xmlns="http://www.w3.org/2000/svg"><path opacity="0.672154" d="M260.201 177.907L49.6985 303.216C34.117 312.492 13.9456 307.415 4.64436 291.876C1.60485 286.799 0 280.995 0 275.082L0 33.6449C0 15.5487 14.7106 0.878906 32.8571 0.878906C38.421 0.878906 43.8938 2.28787 48.7623 4.97371L259.265 121.102C275.144 129.862 280.895 149.799 272.111 165.634C269.299 170.703 265.189 174.938 260.201 177.907Z" fill="#D8D8D8"/><mask id="mask0_66_11681" style="mask-type:luminance" maskUnits="userSpaceOnUse" x="0" y="0" width="277" height="308"><path d="M260.201 177.907L49.6985 303.216C34.117 312.492 13.9456 307.415 4.64436 291.876C1.60485 286.799 0 280.995 0 275.082L0 33.6449C0 15.5487 14.7106 0.878906 32.8571 0.878906C38.421 0.878906 43.8938 2.28787 48.7623 4.97371L259.265 121.102C275.144 129.862 280.895 149.799 272.111 165.634C269.299 170.703 265.189 174.938 260.201 177.907Z" fill="white"/></mask><g mask="url(#mask0_66_11681)"><path d="M-19.7148 263.128L269.428 184.489V269.681L-19.7148 354.872V263.128Z" fill="url(#paint0_linear_66_11681)"/><path d="M-19.7148 169.139L295.784 85.1509V177.936L-19.7148 269.681L-19.7148 169.139Z" fill="url(#paint1_linear_66_11681)"/><path d="M-19.7148 75.5481L269.428 -1.88672V91.7038L-19.7148 172.424V75.5481Z" fill="#93F12E"/><path d="M-19.7148 -19.863L269.428 -97.2979V-1.8866L-19.7148 75.4581L-19.7148 -19.863Z" fill="#FDEC16"/></g><defs><linearGradient id="paint0_linear_66_11681" x1="82.5056" y1="342.89" x2="242.723" y2="223.789" gradientUnits="userSpaceOnUse"><stop stop-color="#FF452E"/><stop offset="1" stop-color="#FF2015"/></linearGradient><linearGradient id="paint1_linear_66_11681" x1="-203.313" y1="266.912" x2="-119.436" y2="481.32" gradientUnits="userSpaceOnUse"><stop stop-color="#43DCFF"/><stop offset="0.195856" stop-color="#3ED8FE"/><stop offset="0.558535" stop-color="#17C2ED"/><stop offset="1" stop-color="#0B9BE2"/></linearGradient></defs></svg>