<svg width="256pt" height="256pt" version="1.1" viewBox="0 0 256 256" xmlns="http://www.w3.org/2000/svg"><g id="#f8d714ff" fill="#f8d714"><path d="m14.48 5.74c3.4-1.07 7.01-0.71 10.52-0.77 70.34 0.02 140.68-0.01 211.02 0.01 5.46-0.33 10.91 2.69 13.41 7.57 2.08 3.81 1.52 8.3 1.6 12.47-0.01 68.66-0.01 137.32 0 205.98-0.06 4.38 0.49 9.15-1.94 13.05-2.6 4.58-7.88 7.21-13.09 6.96-71.98 0.04-143.96 0.03-215.93 0-5.25 0.27-10.56-2.37-13.17-6.99-2.42-3.88-1.87-8.63-1.93-12.99 0.02-70.34-0.01-140.67 0.01-211.01-0.43-6.21 3.59-12.31 9.5-14.28m107.84 33.69c-14.96 1.39-29.3 8.36-39.65 19.25-9.91 10.28-16.17 24-17.37 38.23-1.18 12.94 1.74 26.23 8.31 37.46 7.78 13.44 20.66 23.86 35.48 28.54 14.49 4.68 30.65 3.88 44.61-2.22 14.42-6.23 26.32-18.03 32.68-32.4 6.61-14.74 7.24-32.04 1.71-47.22-4.72-13.25-14.04-24.78-25.96-32.24-11.74-7.43-25.99-10.76-39.81-9.4m-58.68 142.57c0 11.33-0.01 22.66 0 34h7.36c0-4.13 0-8.26 0.01-12.38 4.89-0.21 10.28 0.89 14.7-1.78 6.64-4.22 5.84-16.13-1.84-18.76-6.53-2.02-13.51-0.71-20.23-1.08m31.36-0.02v34.03c2.21-0.01 4.43-0.02 6.64-0.03 0.01-11.3-0.09-22.6 0.05-33.89-2.23-0.1-4.46-0.07-6.69-0.11m14.91 9.93c-2.42 1.25-3.4 3.9-4.08 6.36 2.18 0.12 4.38 0.06 6.57 0.15 0.83-4.08 5.95-5.29 9.03-2.88 0.68 1.52 1.23 4.02-0.79 4.76-3.79 1.3-8.04 0.88-11.69 2.64-4.94 2.35-4.8 10.64 0.13 12.94 4.31 1.97 9.56 1.01 13.21-1.89 0.26 3.53 4.7 1.48 7.03 2.02-1.44-6.71-0.21-13.61-0.86-20.38-0.19-2.04-1.85-3.62-3.67-4.32-4.76-1.82-10.32-1.73-14.88 0.6m52.44 1.46c-4.44 4.27-4.97 11.44-2.64 16.91 2.61 6 10.47 8.19 16.25 5.72 3.31-1.17 5.09-4.4 6.6-7.34-1.94-0.02-3.87-0.03-5.8 0-1.88 2.97-5.81 4.17-8.96 2.5-2.29-1.05-2.56-3.78-2.98-5.95 6.09-0.03 12.18 0 18.27-0.01-0.37-3.83-0.81-7.91-3.32-11.01-4.08-5.29-12.77-5.47-17.42-0.82m30.89 1.79c0.06-1.38 0.12-2.77 0.16-4.15-2.13-0.01-4.27-0.01-6.4-0.01v25.01c2.21-0.01 4.43-0.03 6.64-0.04 0.32-5.5-0.92-11.27 1.04-16.55 1.5-3.15 5.26-3.51 8.33-3.15-0.01-2.14-0.01-4.28-0.02-6.42-3.98 0.03-7.62 1.94-9.75 5.31m-61.66-4.17c3.01 8.67 6.35 17.24 9.1 25.99 0.23 3.74-3.99 4.08-6.67 3.4-0.01 1.73-0.01 3.47-0.01 5.2 4.41 0.8 10.45 0.5 12.22-4.49 3.74-9.96 7.1-20.06 10.66-30.08-2.29-0.01-4.58-0.01-6.86-0.01-1.82 6.03-3.63 12.06-5.5 18.06-2.14-5.92-3.89-11.98-5.73-18.01-2.4-0.05-4.81-0.05-7.21-0.06z"/><path d="m111.13 74.07c1.31-0.17 2.41 0.69 3.5 1.25 13.64 8.39 27.33 16.71 41 25.05 1.27 0.84 3.17 1.74 2.53 3.64-1.02 1.06-2.3 1.82-3.55 2.58-13.78 8.18-27.43 16.6-41.23 24.75-1.21 1.08-3.48 0.59-3.29-1.3-0.22-17.35-0.01-34.71-0.1-52.06 0.12-1.36-0.28-3.1 1.14-3.91z"/><path d="m71 187.63c3.41 0.08 7.12-0.52 10.26 1.13 2.82 2.15 2.47 7.87-1.24 8.92-2.98 0.55-6.02 0.3-9.02 0.31v-10.36z"/><path d="m164.77 200.98c0.41-3.09 2.66-6.44 6.2-5.83 3.27-0.26 4.83 3.13 5.25 5.84-3.82 0.02-7.64 0.02-11.45-0.01z"/><path d="m112.05 208c1.75-3.68 6.75-2.65 10.01-3.99-0.17 2.65 0.47 6.23-2.36 7.73-2.87 2.1-8.98 0.72-7.65-3.74z"/></g><g id="#ffffffff"><path d="m122.32 39.43c13.82-1.36 28.07 1.97 39.81 9.4 11.92 7.46 21.24 18.99 25.96 32.24 5.53 15.18 4.9 32.48-1.71 47.22-6.36 14.37-18.26 26.17-32.68 32.4-13.96 6.1-30.12 6.9-44.61 2.22-14.82-4.68-27.7-15.1-35.48-28.54-6.57-11.23-9.49-24.52-8.31-37.46 1.2-14.23 7.46-27.95 17.37-38.23 10.35-10.89 24.69-17.86 39.65-19.25m-11.19 34.64c-1.42 0.81-1.02 2.55-1.14 3.91 0.09 17.35-0.12 34.71 0.1 52.06-0.19 1.89 2.08 2.38 3.29 1.3 13.8-8.15 27.45-16.57 41.23-24.75 1.25-0.76 2.53-1.52 3.55-2.58 0.64-1.9-1.26-2.8-2.53-3.64-13.67-8.34-27.36-16.66-41-25.05-1.09-0.56-2.19-1.42-3.5-1.25z" fill="#fff"/></g><g id="#222222ff" fill="#222"><path d="m63.64 182c6.72 0.37 13.7-0.94 20.23 1.08 7.68 2.63 8.48 14.54 1.84 18.76-4.42 2.67-9.81 1.57-14.7 1.78-0.01 4.12-0.01 8.25-0.01 12.38h-7.36c-0.01-11.34 0-22.67 0-34m7.36 5.63v10.36c3-0.01 6.04 0.24 9.02-0.31 3.71-1.05 4.06-6.77 1.24-8.92-3.14-1.65-6.85-1.05-10.26-1.13z"/><path d="m95 181.98c2.23 0.04 4.46 0.01 6.69 0.11-0.14 11.29-0.04 22.59-0.05 33.89-2.21 0.01-4.43 0.02-6.64 0.03v-34.03z"/><path d="m109.91 191.91c4.56-2.33 10.12-2.42 14.88-0.6 1.82 0.7 3.48 2.28 3.67 4.32 0.65 6.77-0.58 13.67 0.86 20.38-2.33-0.54-6.77 1.51-7.03-2.02-3.65 2.9-8.9 3.86-13.21 1.89-4.93-2.3-5.07-10.59-0.13-12.94 3.65-1.76 7.9-1.34 11.69-2.64 2.02-0.74 1.47-3.24 0.79-4.76-3.08-2.41-8.2-1.2-9.03 2.88-2.19-0.09-4.39-0.03-6.57-0.15 0.68-2.46 1.66-5.11 4.08-6.36m2.14 16.09c-1.33 4.46 4.78 5.84 7.65 3.74 2.83-1.5 2.19-5.08 2.36-7.73-3.26 1.34-8.26 0.31-10.01 3.99z"/><path d="m162.35 193.37c4.65-4.65 13.34-4.47 17.42 0.82 2.51 3.1 2.95 7.18 3.32 11.01-6.09 0.01-12.18-0.02-18.27 0.01 0.42 2.17 0.69 4.9 2.98 5.95 3.15 1.67 7.08 0.47 8.96-2.5 1.93-0.03 3.86-0.02 5.8 0-1.51 2.94-3.29 6.17-6.6 7.34-5.78 2.47-13.64 0.28-16.25-5.72-2.33-5.47-1.8-12.64 2.64-16.91m2.42 7.61c3.81 0.03 7.63 0.03 11.45 0.01-0.42-2.71-1.98-6.1-5.25-5.84-3.54-0.61-5.79 2.74-6.2 5.83z"/><path d="m193.24 195.16c2.13-3.37 5.77-5.28 9.75-5.31 0.01 2.14 0.01 4.28 0.02 6.42-3.07-0.36-6.83 0-8.33 3.15-1.96 5.28-0.72 11.05-1.04 16.55-2.21 0.01-4.43 0.03-6.64 0.04v-25.01c2.13 0 4.27 0 6.4 0.01-0.04 1.38-0.1 2.77-0.16 4.15z"/><path d="m131.58 190.99c2.4 0.01 4.81 0.01 7.21 0.06 1.84 6.03 3.59 12.09 5.73 18.01 1.87-6 3.68-12.03 5.5-18.06 2.28 0 4.57 0 6.86 0.01-3.56 10.02-6.92 20.12-10.66 30.08-1.77 4.99-7.81 5.29-12.22 4.49 0-1.73 0-3.47 0.01-5.2 2.68 0.68 6.9 0.34 6.67-3.4-2.75-8.75-6.09-17.32-9.1-25.99z"/></g></svg>