<svg width="28" height="28" viewBox="0 0 28 28" fill="none" xmlns="http://www.w3.org/2000/svg"><g id="logo"><rect width="28" height="28" rx="6.22222" fill="url(#paint0_linear_87_144)"/><g><g id="&#231;&#188;&#150;&#231;&#187;&#132; 21"><path fill-rule="evenodd" clip-rule="evenodd" d="M10.0555 19.9097C9.0377 19.303 8.03054 18.677 7.04678 18.0162C6.05833 17.3521 4.97744 16.6761 4.15079 15.8125C3.44858 15.0788 3.13926 14.1435 3.52322 13.1783C3.74487 12.6215 4.14919 12.289 4.61728 11.9388C6.16872 10.7778 7.90225 9.84974 9.61487 8.94708C10.8692 8.28582 12.1528 7.679 13.4606 7.1278C14.3868 6.73734 11.3384 20.6746 10.0555 19.9097Z" fill="url(#paint1_linear_87_144)"/><path fill-rule="evenodd" clip-rule="evenodd" d="M20.9028 12.135C20.9408 13.2208 20.9431 14.3074 20.9225 15.3929C20.9033 16.4679 20.8302 17.5411 20.7219 18.6099C20.5583 20.2262 20.6614 22.9355 18.825 23.6847C18.053 23.9997 17.2103 23.8022 16.4753 23.4613C15.6146 23.0621 14.7763 22.5885 13.9444 22.1363C12.6322 21.4229 11.339 20.6746 10.0561 19.9097C9.03831 19.303 20.871 11.2294 20.9028 12.135Z" fill="url(#paint2_linear_87_144)"/><path fill-rule="evenodd" clip-rule="evenodd" d="M20.7208 9.42192C20.8133 10.3242 20.8706 11.2294 20.9024 12.135C20.9404 13.2208 20.9427 14.3075 20.9221 15.3929C20.9029 16.468 7.90248 9.84977 9.6151 8.9471C10.8694 8.28584 12.153 7.67901 13.4608 7.12781C14.3871 6.73735 15.3015 6.31235 16.2645 6.01414C17.0337 5.77602 17.9108 5.49825 18.7327 5.70721C19.6449 5.93901 20.2067 6.7775 20.4448 7.63575C20.6045 8.21022 20.6604 8.83292 20.7208 9.42192Z" fill="url(#paint3_linear_87_144)"/><g filter="url(#filter0_d_87_144)"><path fill-rule="evenodd" clip-rule="evenodd" d="M21.6535 17.9191C20.9196 18.4518 20.1654 18.9553 19.3982 19.4367C18.4782 20.014 17.5397 20.5604 16.5907 21.0865C15.6514 21.6085 14.6868 22.0827 13.7083 22.524C12.2286 23.1916 9.93732 24.6391 8.37016 23.4163C7.71128 22.9022 7.46023 22.0699 7.38705 21.2594C7.30144 20.3104 7.29128 19.3434 7.26592 18.3928C7.22588 16.8933 7.22563 15.3929 7.24483 13.8932C7.26002 12.7033 7.29718 11.5131 7.37613 10.3258C7.45559 9.1328 7.49902 7.85339 7.83203 6.7012C8.11496 5.72241 8.76895 4.98452 9.79586 4.83498C10.3883 4.74885 10.8783 4.93412 11.4155 5.16596C13.1962 5.93435 14.8665 6.97796 16.5045 8.01608C17.7043 8.7763 18.8716 9.58934 20.003 10.4513C20.8043 11.0617 21.6296 11.6445 22.3696 12.3332C22.9606 12.8832 23.6399 13.5074 23.8706 14.3274C24.1268 15.2374 23.683 16.1465 23.06 16.7839C22.6431 17.2107 22.1326 17.5714 21.6535 17.9191Z" fill="white"/></g><path fill-rule="evenodd" clip-rule="evenodd" d="M16.7797 15.7278C16.535 15.9105 16.2837 16.0833 16.0279 16.2484C15.7213 16.4465 15.4084 16.6339 15.0921 16.8144C14.779 16.9935 14.4574 17.1562 14.1313 17.3076C13.6381 17.5366 12.8743 18.0332 12.3519 17.6137C12.1323 17.4373 12.0486 17.1518 12.0242 16.8737C11.9957 16.5481 11.9923 16.2164 11.9838 15.8903C11.9705 15.3759 11.9704 14.8611 11.9768 14.3466C11.9819 13.9384 11.9942 13.5301 12.0206 13.1228C12.047 12.7135 12.0615 12.2746 12.1725 11.8793C12.2668 11.5435 12.4848 11.2904 12.8271 11.2391C13.0246 11.2095 13.1879 11.2731 13.367 11.3526C13.9606 11.6162 14.5174 11.9742 15.0633 12.3304C15.4633 12.5912 15.8524 12.8701 16.2295 13.1658C16.4966 13.3752 16.7717 13.5752 17.0184 13.8114C17.2154 14.0001 17.4418 14.2143 17.5187 14.4956C17.6041 14.8078 17.4562 15.1197 17.2485 15.3383C17.1096 15.4847 16.9394 15.6085 16.7797 15.7278Z" fill="url(#paint4_linear_87_144)"/></g></g></g><defs><linearGradient id="paint0_linear_87_144" x1="12.0694" y1="45.9458" x2="43.1922" y2="15.5614" gradientUnits="userSpaceOnUse"><stop stop-color="#8E3BEB"/><stop offset="0.358999" stop-color="#4B55E8"/><stop offset="0.684563" stop-color="#3861E7"/><stop offset="1" stop-color="#3E93FF"/></linearGradient><linearGradient id="paint1_linear_87_144" x1="0.881796" y1="20.3806" x2="10.6665" y2="22.3946" gradientUnits="userSpaceOnUse"><stop stop-color="white"/><stop offset="1" stop-color="white" stop-opacity="0.0315158"/><stop offset="1" stop-color="white" stop-opacity="0.01"/></linearGradient><linearGradient id="paint2_linear_87_144" x1="23.3468" y1="21.5116" x2="18.183" y2="15.0328" gradientUnits="userSpaceOnUse"><stop stop-color="white"/><stop offset="1" stop-color="white" stop-opacity="0.01"/></linearGradient><linearGradient id="paint3_linear_87_144" x1="14.332" y1="1.72647" x2="9.79149" y2="9.03326" gradientUnits="userSpaceOnUse"><stop stop-color="white"/><stop offset="1" stop-color="white" stop-opacity="0.01"/></linearGradient><linearGradient id="paint4_linear_87_144" x1="15.2557" y1="9.29257" x2="9.39501" y2="13.0592" gradientUnits="userSpaceOnUse"><stop stop-color="#386CEB"/><stop offset="1" stop-color="#3A40DB"/></linearGradient></defs></svg>